#!OML:ASF \\sashay\E\basketball\basketball\Project 1\Capture day 1\Session 1\Subject.ASF
:FULLY-SPECIFIED
:DEGREES
433
root 37.459 14.5353 13.086 -353.847 -64.4445 358.014
lowerback 34.0387 0.147067 -3.72708
upperback 11.698 -1.68371 3.84049
thorax -4.30981 -1.43006 6.61051
lowerneck -6.49803 -3.66922 -11.0879
upperneck -18.021 -3.08801 17.8798
head -3.6258 -1.98877 7.60952
rclavicle -2.22639e-014 3.45388e-014
rhumerus -17.2647 -41.6927 -41.4916
rradius 57.21
rwrist -29.2064
rhand -38.6435 50.9856
rfingers 7.12502
rthumb -11.6599 21.33
lclavicle -2.22639e-014 3.45388e-014
lhumerus -46.1336 -19.5746 75.9271
lradius 80.7933
lwrist 30.5604
lhand -34.7951 10.348
lfingers 7.12502
lthumb -7.94703 40.1786
rfemur -30.8827 -18.235 1.76184
rtibia 48.996
rfoot -9.13485 -15.947
rtoes -24.0055
lfemur -46.9356 37.0552 -18.6946
ltibia 57.8995
lfoot -7.31362 6.98191
ltoes -7.85144
434
root 37.604 14.6358 13.3087 -354.142 -64.8432 358.463
lowerback 34.1768 0.403878 -3.72901
upperback 11.5744 -1.37958 3.54034
thorax -4.53194 -1.25905 6.19659
lowerneck -5.72938 -3.77481 -10.5365
upperneck -17.9244 -3.32649 17.5366
head -3.71537 -2.1414 7.40329
rclavicle -3.76697e-014 -1.22253e-014
rhumerus -17.1244 -41.316 -41.586
rradius 56.5609
rwrist -29.2737
rhand -38.5011 51.0998
rfingers 7.12502
rthumb -11.5225 21.4365
lclavicle -3.76697e-014 -1.22253e-014
lhumerus -46.4648 -19.8661 75.7738
lradius 79.7085
lwrist 31.0936
lhand -34.6321 11.212
lfingers 7.12502
lthumb -7.78966 41.0485
rfemur -32.7491 -19.6801 3.89329
rtibia 52.58
rfoot -10.0694 -16.3247
rtoes -23.6178
lfemur -47.4429 38.318 -20.3623
ltibia 58.0678
lfoot -6.12893 5.64604
ltoes -12.3037
435
root 37.7774 14.7245 13.5492 -354.009 -65.2275 359.058
lowerback 33.7779 0.315293 -3.61376
upperback 11.5698 -1.44477 3.40362
thorax -4.38715 -1.28239 6.00397
lowerneck -5.80668 -3.75148 -11.267
upperneck -18.3826 -3.2425 17.5722
head -3.83541 -2.06839 7.56636
rclavicle 5.71506e-015 -5.71506e-015
rhumerus -15.3458 -40.8394 -42.3698
rradius 55.724
rwrist -29.0729
rhand -38.269 51.3414
rfingers 7.12502
rthumb -11.2987 21.6657
lclavicle 5.71506e-015 -5.71506e-015
lhumerus -46.6989 -19.1422 76.076
lradius 78.6455
lwrist 31.2662
lhand -34.3983 12.2349
lfingers 7.12502
lthumb -7.56407 42.0797
rfemur -35.2743 -21.431 6.17805
rtibia 55.7702
rfoot -10.2128 -16.5592
rtoes -23.8913
lfemur -49.0306 38.8449 -22.6336
ltibia 58.4599
lfoot -4.59469 4.94944
ltoes -19.6189
436
root 37.9356 14.8397 13.7764 -354.576 -65.3091 359.973
lowerback 33.8222 0.273517 -3.54454
upperback 11.5201 -1.48271 3.2257
thorax -4.45461 -1.28718 5.79238
lowerneck -5.69066 -3.84777 -11.685
upperneck -18.6317 -3.35841 17.5716
head -3.90342 -2.10891 7.6531
rclavicle 1.27222e-014 -2.20651e-014
rhumerus -14.3675 -40.5214 -42.8197
rradius 55.2807
rwrist -28.6999
rhand -38.2383 51.1887
rfingers 7.12502
rthumb -11.2691 21.5114
lclavicle 1.27222e-014 -2.20651e-014
lhumerus -47.1199 -18.996 76.4055
lradius 77.6151
lwrist 31.4959
lhand -34.2583 13.3163
lfingers 7.12502
lthumb -7.42888 43.1659
rfemur -36.9799 -23.0113 8.21676
rtibia 58.4668
rfoot -10.4818 -16.6341
rtoes -24.0159
lfemur -49.8302 39.5181 -24.2699
ltibia 58.8733
lfoot -2.91065 2.91686
ltoes -17.4584
437
root 38.0925 14.9405 14.0025 -355.038 -65.3495 360.855
lowerback 33.78 0.336436 -3.40763
upperback 11.3638 -1.35058 3.06876
thorax -4.62622 -1.19798 5.51205
lowerneck -5.1734 -4.02665 -11.7574
upperneck -18.6632 -3.65598 17.36
head -3.96196 -2.2522 7.60325
rclavicle 3.27995e-014 -1.49089e-015
rhumerus -14.3541 -39.902 -42.6508
rradius 55.547
rwrist -28.9119
rhand -38.5548 50.7052
rfingers 7.12502
rthumb -11.5743 21.0448
lclavicle 3.27995e-014 -1.49089e-015
lhumerus -47.4918 -19.2298 76.8719
lradius 76.5321
lwrist 31.7494
lhand -33.9675 14.2232
lfingers 7.12502
lthumb -7.14818 44.0825
rfemur -38.8079 -24.6484 10.3903
rtibia 60.9552
rfoot -10.73 -16.4528
rtoes -25.7978
lfemur -50.6049 39.7033 -25.6621
ltibia 59.3867
lfoot -0.72017 1.04146
ltoes -17.1557
438
root 38.2491 15.0361 14.2217 -355.33 -65.4819 361.49
lowerback 33.7904 0.288232 -3.11762
upperback 11.2774 -1.33248 2.75407
thorax -4.73207 -1.16425 5.02003
lowerneck -4.58543 -4.08728 -11.6902
upperneck -19.0367 -3.77991 17.1657
head -4.16468 -2.33466 7.55712
rclavicle -1.27222e-014 1.74931e-014
rhumerus -14.1388 -39.043 -42.9605
rradius 56.0402
rwrist -29.497
rhand -38.8416 50.5501
rfingers 7.12502
rthumb -11.8509 20.9055
lclavicle -1.27222e-014 1.74931e-014
lhumerus -47.9067 -19.3479 77.0395
lradius 75.4308
lwrist 31.9877
lhand -33.8386 15.5113
lfingers 7.12502
lthumb -7.02373 45.3747
rfemur -40.5298 -25.8038 12.5778
rtibia 63.0794
rfoot -11.1192 -16.1696
rtoes -25.8884
lfemur -50.9798 39.5448 -26.3555
ltibia 59.9202
lfoot 1.6238 -0.684206
ltoes -14.9138
439
root 38.404 15.1073 14.4384 -355.517 -65.6488 361.975
lowerback 33.7376 0.334822 -3.15547
upperback 11.2401 -1.28066 2.7562
thorax -4.75753 -1.13647 5.0253
lowerneck -4.01305 -4.14354 -11.5635
upperneck -19.0379 -3.9557 16.6731
head -4.26114 -2.41472 7.38288
rclavicle 1.68967e-014 1.49089e-015
rhumerus -12.8581 -38.2382 -43.3222
rradius 55.6693
rwrist -29.9937
rhand -38.8277 50.9743
rfingers 7.12502
rthumb -11.8375 21.3289
lclavicle 1.68967e-014 1.49089e-015
lhumerus -48.4857 -19.0304 77.6606
lradius 74.4835
lwrist 32.3372
lhand -33.3032 14.9731
lfingers 7.12502
lthumb -6.50694 44.8532
rfemur -42.2366 -26.8281 14.8658
rtibia 65.0544
rfoot -11.7297 -15.7419
rtoes -28.6074
lfemur -51.4755 39.9397 -26.8924
ltibia 60.5025
lfoot 4.49803 -3.01592
ltoes -15.6754
440
root 38.5588 15.1639 14.663 -356.069 -65.7579 362.922
lowerback 33.294 0.352253 -3.1289
upperback 11.5668 -1.26245 2.74838
thorax -4.24407 -1.15223 4.9819
lowerneck -4.3195 -4.37172 -11.7571
upperneck -19.176 -4.29029 16.3293
head -4.21474 -2.54432 7.29736
rclavicle 2.70347e-014 5.1684e-015
rhumerus -10.6298 -38.3003 -44.0625
rradius 54.9326
rwrist -30.1449
rhand -38.903 51.3424
rfingers 7.12502
rthumb -11.9101 21.7012
lclavicle 2.70347e-014 5.1684e-015
lhumerus -48.1656 -18.7536 78.1893
lradius 72.9815
lwrist 32.5807
lhand -32.4955 14.4084
lfingers 7.12502
lthumb -5.72716 44.311
rfemur -43.9858 -27.901 16.8739
rtibia 66.8098
rfoot -12.2043 -15.1314
rtoes -29.3474
lfemur -51.6734 39.3683 -27.197
ltibia 61.0549
lfoot 6.80819 -5.31303
ltoes -22.7851
441
root 38.7136 15.2193 14.8925 -357.215 -65.8122 364.495
lowerback 33.1314 0.346151 -3.02374
upperback 11.4143 -1.23784 2.35415
thorax -4.35457 -1.10917 4.5027
lowerneck -3.60329 -4.36021 -11.9702
upperneck -19.3078 -4.33249 16.1774
head -4.37067 -2.55757 7.31024
rclavicle 4.83047e-014 -1.5704e-014
rhumerus -10.0838 -38.0655 -44.3226
rradius 54.8456
rwrist -30.2552
rhand -39.1548 51.447
rfingers 7.12502
rthumb -12.1529 21.82
lclavicle 4.83047e-014 -1.5704e-014
lhumerus -48.6318 -19.3804 78.5459
lradius 71.4947
lwrist 32.9188
lhand -32.0523 14.9038
lfingers 7.12502
lthumb -5.29919 44.8176
rfemur -45.598 -28.9505 18.4633
rtibia 68.3159
rfoot -12.8334 -14.3037
rtoes -29.6922
lfemur -51.4958 38.6614 -27.2808
ltibia 61.4709
lfoot 9.40212 -7.38444
ltoes -20.1556
442
root 38.8599 15.2628 15.1124 -358.324 -65.9354 365.823
lowerback 33.1434 0.340634 -3.16698
upperback 11.4103 -1.30123 2.17386
thorax -4.35593 -1.13632 4.41004
lowerneck -3.58149 -4.31031 -12.7107
upperneck -19.601 -4.27863 16.026
head -4.46153 -2.47487 7.40599
rclavicle 3.08116e-014 1.94809e-014
rhumerus -8.83872 -37.3742 -44.8566
rradius 54.8684
rwrist -30.3305
rhand -39.1243 51.468
rfingers 7.12502
rthumb -12.1235 21.8392
lclavicle 3.08116e-014 1.94809e-014
lhumerus -48.8542 -19.0667 79.0915
lradius 69.9158
lwrist 32.8296
lhand -31.3195 14.8123
lfingers 7.12502
lthumb -4.5917 44.7425
rfemur -46.7895 -29.7458 20.0397
rtibia 69.5482
rfoot -13.4427 -13.6044
rtoes -30.4652
lfemur -50.7906 37.7146 -26.7038
ltibia 61.8958
lfoot 11.2615 -11.3344
ltoes -17.0028
443
root 39.0142 15.2944 15.354 -358.873 -65.9597 366.747
lowerback 32.4059 0.213488 -2.84027
upperback 11.7361 -1.32433 1.86841
thorax -4.19799 -1.1225 4.2194
lowerneck -3.41965 -4.37131 -12.9486
upperneck -19.4845 -4.45772 15.4558
head -4.45008 -2.509 7.25491
rclavicle 5.64548e-014 -3.93594e-014
rhumerus -7.99328 -36.5478 -44.9325
rradius 55.135
rwrist -30.841
rhand -38.9731 51.3528
rfingers 7.12502
rthumb -11.9777 21.7155
lclavicle 5.64548e-014 -3.93594e-014
lhumerus -49.0132 -19.0825 79.8421
lradius 68.3507
lwrist 32.4517
lhand -30.9266 15.1763
lfingers 7.12502
lthumb -4.21228 45.1144
rfemur -48.3827 -30.6366 21.7872
rtibia 70.4689
rfoot -13.7074 -12.8286
rtoes -31.701
lfemur -50.1574 36.3153 -26.0037
ltibia 62.3079
lfoot 12.5871 -12.8338
ltoes -1.84065
444
root 39.1634 15.3238 15.6011 -359.46 -66.3706 367.757
lowerback 31.924 0.175938 -2.49894
upperback 11.6344 -1.26554 1.58288
thorax -4.12651 -1.07028 3.66694
lowerneck -2.96015 -4.36096 -13.2785
upperneck -19.41 -4.52829 15.1605
head -4.50155 -2.5071 7.22342
rclavicle 1.15295e-014 -1.17283e-014
rhumerus -7.2941 -35.4893 -45.0935
rradius 55.6396
rwrist -31.8928
rhand -39.3887 51.5702
rfingers 7.12502
rthumb -12.3784 21.9566
lclavicle 1.15295e-014 -1.17283e-014
lhumerus -49.4914 -19.3034 80.5862
lradius 67.0284
lwrist 32.146
lhand -30.1387 15.4521
lfingers 7.12502
lthumb -3.45142 45.4039
rfemur -49.8662 -31.1083 23.4361
rtibia 71.0609
rfoot -13.4381 -12.5181
rtoes -32.7929
lfemur -49.2837 34.9037 -25.1673
ltibia 62.6721
lfoot 9.15973 -9.83814
ltoes -12.7491
445
root 39.3077 15.3644 15.8348 -360.235 -66.8948 368.532
lowerback 31.9986 0.238868 -2.3894
upperback 11.4946 -1.16834 1.345
thorax -4.33688 -1.00542 3.30962
lowerneck -2.24772 -4.15061 -13.664
upperneck -19.5934 -4.29872 15.1881
head -4.70178 -2.38236 7.33106
rclavicle 2.98177e-014 -4.01545e-014
rhumerus -6.51995 -34.3528 -45.3691
rradius 55.8606
rwrist -32.0304
rhand -39.111 51.0829
rfingers 7.12502
rthumb -12.1107 21.4533
lclavicle 2.98177e-014 -4.01545e-014
lhumerus -49.9588 -19.1916 81.233
lradius 64.9251
lwrist 31.3865
lhand -29.3876 13.9246
lfingers 7.12502
lthumb -2.72607 43.8869
rfemur -50.5046 -31.2806 24.8058
rtibia 71.2725
rfoot -13.7098 -11.6966
rtoes -33.3728
lfemur -47.5083 33.7064 -23.3696
ltibia 62.9181
lfoot 5.62138 -4.48996
ltoes -15.0537
